<svg width="355" height="480" viewBox="0 0 355 480" fill="none" xmlns="http://www.w3.org/2000/svg">
    <path d="M123.784 187.677C121.069 188.984 118.378 190.361 115.713 191.809C109.488 195.206 103.485 198.995 97.7401 203.153C93.6404 206.111 89.7014 209.239 85.923 212.537C81.8981 205.263 78.5179 195.778 73.7056 186.076C68.3439 175.384 61.7368 165.363 54.0219 156.222C44.8399 146.798 36.2014 136.86 28.1481 126.456C18.4493 113.939 9.62291 100.77 1.73121 87.0428C0.780963 83.976 -2.28019 72.7945 3.0887 60.5816C5.88208 54.3007 10.3419 48.904 15.9849 44.9763C23.8084 42.0797 32.3235 41.6069 40.4198 43.6193C49.6697 46.0332 57.8139 51.5404 63.4972 59.2246C69.6014 69.3568 75.7102 79.9865 81.8234 91.1138C88.1584 102.702 94.0409 114.011 99.4709 125.038C104.572 134.485 109.105 144.228 113.046 154.214C117.35 165.122 120.937 176.301 123.784 187.677Z"
          fill="white"/>
    <path d="M271.873 163.034C270.8 176.604 269.524 182.527 267.44 185.994C264.336 184.556 261.228 183.217 258.115 181.977C252.424 179.713 246.622 177.738 240.732 176.061C239.89 175.824 239.062 175.6 238.227 175.383C236.985 171.99 235.79 168.286 234.542 164.398C231.032 153.488 232.152 152.633 227.754 138.615C225.667 131.69 223.174 124.893 220.288 118.26C216.955 110.681 213.948 105.416 208.07 95.1915C203 86.3711 199.247 79.3419 195.853 74.8367C187.063 63.2006 174.54 51.9104 172.776 38.8766C173.162 12.8089 190.776 -7.85797 215.537 2.9165C234.134 10.882 244.587 29.3777 251.51 44.983C254.069 50.757 256.94 58.7361 262.37 74.8367C267.21 89.1665 269.66 96.5485 271.194 105.369C272.823 114.773 272.83 122.101 272.945 136.742C272.959 137.896 273.013 148.582 271.873 163.034Z"
          fill="white"/>
    <path d="M115.713 191.809C109.488 195.206 103.485 198.995 97.7401 203.153C90.0838 191.056 79.7668 169.989 74.3776 161.677C63.8095 143.127 51.5173 133.045 40.4402 118.932C28.053 104.616 22.6502 91.1138 20.0778 82.2934C17.2542 72.6452 13.8672 61.0905 19.399 55.8321C25.5077 50.0242 39.4017 54.8619 47.2277 59.2246C58.841 65.7042 63.7552 74.8299 75.735 98.5772C103.991 154.505 109.537 168.604 114.424 186.781C114.872 188.511 115.306 190.194 115.713 191.809Z"
          fill="#F385A3"/>
    <path d="M258.977 177.961C258.827 179.326 258.538 180.672 258.115 181.977C252.424 179.713 246.622 177.738 240.732 176.061C241.506 170.945 242.476 162.267 242.687 159.642C242.972 156.025 242.198 151.805 240.65 143.358C239.34 136.227 238.539 131.572 236.578 125.717C234.175 118.552 231.148 112.792 225.039 101.291C222.324 96.1618 220.417 92.5861 217.573 87.7213C215.7 84.5256 214.288 82.2594 212.143 78.2224C211.261 76.5601 210.785 75.6577 208.07 70.0805C202.444 58.6479 202.288 58.3019 201.962 57.1891C200.984 53.7967 199.674 49.0472 201.283 43.6193C201.962 41.4074 203.217 37.065 207.392 34.7989C211.851 32.3834 216.582 34.005 216.894 34.1204C219.779 35.1585 221.408 37.1329 228.433 48.3687C231.501 53.2742 233.028 55.7236 233.863 57.1891C237.462 63.5308 240.636 70.1039 243.365 76.8654C247.675 87.5381 249.746 95.9107 252.868 108.755C254.904 117.12 257.354 128.159 259.655 141.322C259.655 141.322 261.739 155.367 258.977 177.961Z"
          fill="#F385A3"/>
    <path d="M107.616 340.121C100.618 341.362 99.5116 333.281 107.616 332.657C134.677 327.155 124.462 291.425 99.4709 287.877C84.742 287.293 72.64 298.814 73.6785 314.338C77.4048 339.279 119.27 327.908 106.937 304.839C99.3962 295.7 84.9321 298.196 85.8959 308.91C85.509 313.53 89.9684 317.696 94.7196 315.016C97.7876 313.456 98.2627 310.267 100.15 308.91C105.641 307.397 104.283 314.08 101.507 317.052C90.4503 329.373 74.4251 316.787 80.4659 302.125C92.568 282.042 123.655 298.21 114.403 320.444C98.1134 348.676 54.6735 332.867 68.9272 298.733C83.8597 270.507 117.729 279.538 127.3 300.089C132.356 309.805 134.216 333.716 107.616 340.121Z"
          fill="white"/>
    <path d="M167.766 354.572C167.766 355.156 167.407 355.359 166.47 356.608C165.943 357.221 165.506 357.906 165.174 358.643C164.866 359.388 164.761 360.2 164.868 360.998C164.99 361.798 165.357 362.504 164.977 363.345C164.941 363.436 164.895 363.522 164.841 363.603C164.595 363.973 164.25 364.266 163.846 364.451C163.442 364.635 162.994 364.704 162.554 364.648C161.732 364.465 161.366 363.637 160.938 362.667C160.508 361.688 160.328 360.618 160.416 359.553C160.524 358.596 160.799 357.666 161.23 356.805C161.607 355.872 162.109 354.996 162.723 354.199C163.175 353.501 163.818 352.947 164.576 352.605C164.975 352.482 165.397 352.454 165.808 352.523C166.22 352.593 166.609 352.758 166.945 353.005C167.185 353.193 167.382 353.431 167.524 353.701C167.665 353.971 167.748 354.268 167.766 354.572Z"
          fill="white"/>
    <path d="M168.024 206.458C168.012 206.982 167.884 207.497 167.649 207.966C167.414 208.435 167.079 208.847 166.667 209.171C165.085 210.617 162.92 210.569 161.237 210.528C159.858 210.459 158.491 210.231 157.164 209.85C155.758 209.559 154.391 209.104 153.092 208.493C151.673 207.814 150.879 207.401 150.377 206.458C150.295 206.301 149.393 204.558 150.377 203.065C150.693 202.644 151.103 202.302 151.574 202.066C152.045 201.831 152.565 201.708 153.092 201.708C153.771 201.708 154.13 201.946 155.128 202.387C156.422 203.012 157.791 203.468 159.201 203.744C160.553 203.911 161.921 203.911 163.273 203.744C164.909 203.628 165.309 203.465 165.988 203.744C166.546 203.962 167.033 204.332 167.392 204.811C167.752 205.29 167.971 205.861 168.024 206.458Z"
          fill="white"/>
    <path d="M272.097 280.888C269.29 281.268 266.448 281.306 263.633 281.004C264.877 283.581 265.593 286.382 265.737 289.24H268.452C268.992 289.24 269.51 289.455 269.892 289.837C270.274 290.218 270.488 290.736 270.488 291.276C270.488 291.816 270.274 292.333 269.892 292.715C269.51 293.097 268.992 293.311 268.452 293.311H265.526C265.256 295.201 264.749 297.05 264.02 298.814L266.422 298.488C266.526 298.482 266.631 298.482 266.735 298.488C267.365 298.446 267.986 298.656 268.461 299.071C268.937 299.486 269.227 300.074 269.27 300.704C269.312 301.333 269.102 301.954 268.687 302.429C268.271 302.905 267.684 303.195 267.054 303.238L263.015 303.78C262.911 303.787 262.807 303.787 262.703 303.78C262.28 303.78 261.865 303.665 261.501 303.448C259.863 305.818 257.869 307.921 255.59 309.683L262.9 309.283H263.008C263.276 309.276 263.542 309.321 263.792 309.416C264.042 309.511 264.271 309.655 264.465 309.838C264.659 310.022 264.816 310.242 264.925 310.486C265.034 310.73 265.095 310.994 265.102 311.261C265.11 311.528 265.065 311.794 264.969 312.044C264.874 312.294 264.73 312.523 264.547 312.717C264.363 312.911 264.143 313.068 263.898 313.177C263.654 313.286 263.391 313.346 263.124 313.354L247.512 314.216C245.651 314.925 243.729 315.465 241.77 315.831C241.336 315.912 240.901 315.987 240.467 316.048C240.012 316.414 239.612 316.76 239.252 317.086C238.634 317.649 237.257 319.047 234.501 321.835C231.745 324.624 231.786 324.637 231.107 325.228C228.426 327.589 228.087 327.134 225.677 329.299C223.688 331.083 223.288 331.958 221.605 332.691C220.532 333.149 219.377 333.38 218.211 333.37C216.595 333.559 214.958 333.326 213.46 332.691C211.817 331.965 211.471 331.171 208.708 329.299C207.614 328.561 206.481 327.882 205.315 327.263C203.352 326.201 201.31 325.293 199.206 324.549C197.536 323.918 195.916 323.163 194.36 322.29C188.968 322.998 183.484 322.316 178.43 320.309C178.409 320.495 178.361 320.678 178.287 320.851L175.389 327.908C175.164 328.36 174.796 328.725 174.342 328.947C173.888 329.169 173.373 329.234 172.878 329.134C172.383 329.033 171.935 328.772 171.603 328.391C171.272 328.01 171.075 327.53 171.045 327.026C171.045 326.728 171.103 326.433 171.214 326.157L174.113 319.108C174.222 318.837 174.386 318.593 174.595 318.388C174.371 318.26 174.147 318.124 173.916 317.975C173.666 318.186 173.375 318.343 173.061 318.436L161.026 322.046C160.423 322.225 159.772 322.158 159.217 321.859C158.663 321.56 158.249 321.054 158.067 320.451C158 320.231 157.966 320.003 157.965 319.773C157.967 319.261 158.132 318.763 158.438 318.353C158.743 317.943 159.172 317.641 159.662 317.493L169.524 314.541C168.216 313.288 167.055 311.891 166.063 310.375L162.723 311.536C162.213 311.716 161.652 311.686 161.164 311.452C160.676 311.219 160.3 310.801 160.12 310.291C159.94 309.78 159.97 309.22 160.204 308.732C160.438 308.244 160.855 307.869 161.366 307.689L164.081 306.746C163.575 305.592 163.166 304.398 162.859 303.177L158.332 303.916C157.98 303.974 157.62 303.963 157.272 303.882C156.924 303.801 156.596 303.652 156.306 303.444C156.016 303.236 155.77 302.973 155.582 302.67C155.394 302.366 155.267 302.029 155.21 301.677C155.188 301.536 155.177 301.393 155.176 301.25C155.167 300.599 155.393 299.967 155.812 299.469C156.23 298.971 156.814 298.64 157.456 298.536L162.133 297.769C162.082 295.221 162.44 292.68 163.192 290.245C161.017 290.979 158.775 291.499 156.499 291.798C142.565 293.657 130.205 287.178 128.895 277.34C127.585 267.501 137.813 258.009 151.748 256.15C165.683 254.291 178.043 260.771 179.353 270.609C179.425 271.151 179.463 271.697 179.468 272.244C181.485 271.317 183.588 270.587 185.746 270.066C190.417 268.919 195.281 268.803 200 269.727C200.523 264.693 205.62 260.744 211.831 260.744C218.36 260.744 223.661 265.106 223.709 270.507C226.548 269.049 229.585 268.012 232.723 267.427C236.675 266.675 240.732 266.661 244.689 267.386C244.615 267.071 244.558 266.751 244.519 266.429C243.202 256.591 253.438 247.106 267.373 245.247C281.307 243.388 293.667 249.861 294.977 259.706C296.287 269.551 286.031 279.022 272.097 280.888Z"
          fill="white"/>
    <path d="M250.553 202.102C250.553 204.239 249.06 205.806 247.899 207.021C245.823 208.928 243.462 210.501 240.902 211.682C239.422 212.259 238.607 212.578 237.569 212.313C237.392 212.272 235.499 211.763 235.064 210.026C234.966 209.51 234.988 208.977 235.131 208.471C235.273 207.964 235.532 207.498 235.886 207.109C236.354 206.607 236.761 206.505 237.759 206.064C239.093 205.529 240.352 204.824 241.506 203.967C242.545 203.086 243.469 202.076 244.254 200.962C245.266 199.673 245.408 199.279 246.08 198.926C246.621 198.661 247.224 198.551 247.823 198.609C248.423 198.666 248.994 198.889 249.474 199.252C249.852 199.618 250.145 200.064 250.332 200.556C250.518 201.049 250.594 201.577 250.553 202.102Z"
          fill="white"/>
    <path d="M283.629 341.118C283.553 342.584 283.291 344.034 282.848 345.433C282.475 346.553 282.068 347.774 281.172 348.48C280.724 348.824 280.196 349.047 279.637 349.128C279.078 349.209 278.508 349.145 277.981 348.941C277.583 348.767 277.224 348.513 276.929 348.195C276.633 347.876 276.407 347.499 276.264 347.089C276.033 346.261 276.386 345.827 277.038 343.662C277.45 342.572 277.712 341.431 277.819 340.27C277.888 339.085 277.674 337.902 277.194 336.816C276.692 335.751 275.925 334.91 276.04 333.56C276.053 333.418 276.076 333.277 276.108 333.139C276.38 331.972 277.466 330.778 278.572 330.683C279.678 330.588 280.513 331.592 281.477 332.766C282.456 333.979 283.141 335.403 283.479 336.925C283.755 338.305 283.806 339.721 283.629 341.118Z"
          fill="white"/>
    <path d="M285.448 397.114C284.823 398.328 283.215 397.996 282.733 399.149C282.482 399.753 282.889 399.916 282.733 401.185C282.695 401.912 282.461 402.616 282.054 403.22C281.735 403.639 281.325 403.979 280.854 404.214C280.384 404.45 279.865 404.574 279.339 404.577C278.608 404.558 277.899 404.322 277.303 403.899C275.979 403.044 276.128 402.148 275.266 401.863C274.404 401.578 273.943 402.209 271.873 403.22C270.772 403.746 269.638 404.199 268.479 404.577L268.126 404.679C268.23 405.059 268.325 405.473 268.411 405.921C269.49 408.506 269.517 411.132 269.341 413.846C269.341 414.076 269.341 414.3 269.341 414.524H269.28L268.601 414.639L267.244 414.857L265.832 415.067L265.364 415.128C256.54 416.349 247.037 416.648 235.18 416.838L222.087 417.014L217.641 417.082C214.091 417.143 210.351 417.218 206.387 417.319L203.319 417.401L201.962 417.442H200.937C192.473 417.665 185.326 417.944 179.149 418.235C171.724 418.588 165.744 418.961 160.653 419.274C159.4 419.238 158.187 418.827 157.171 418.093C156.886 417.876 154.857 416.342 155.135 414.7C155.413 413.059 157.85 412.217 159.207 411.986C159.811 411.885 160.497 411.844 164.637 412.665C168.031 413.343 168.147 413.486 168.71 413.343C170.454 412.896 171.038 411.342 173.461 407.237C174.384 405.676 175.66 403.709 178.212 399.774L178.66 399.095C180.276 396.619 181.735 394.468 182.285 393.667C184.654 390.2 185.217 389.508 186.357 387.561C187.776 385.139 188.502 383.904 189.072 382.133C189.751 380.097 189.602 379.181 189.751 373.991C189.975 366.426 190.342 364.723 189.072 363.813C188.774 363.603 188.394 363.413 184.321 363.813C179 364.336 177.405 364.885 176.176 363.813C175.465 363.063 174.993 362.118 174.819 361.1C174.601 360.197 174.357 359.179 174.819 358.386C175.049 357.985 175.66 357.3 179.57 357.029C183.479 356.757 184.769 357.314 185.679 356.35C186.405 355.577 185.862 354.932 186.357 352.958C186.975 350.874 188.148 348.998 189.751 347.53C191.462 345.745 192.683 344.476 194.502 344.137C198.575 343.377 202.518 347.944 203.326 348.887C206.72 352.835 205.783 355.461 208.756 357.029C211.871 358.677 215.652 357.246 216.222 357.029C218.136 356.303 219.378 355.095 220.973 353.636C223.268 351.546 223.566 350.128 225.046 348.887C229.75 344.938 235.044 344.422 237.942 344.137C241.619 343.661 245.356 344.128 248.802 345.494C251.307 346.532 254.626 347.91 255.59 350.922C256.445 353.589 254.985 356.099 252.875 359.743C250.59 363.652 247.598 367.104 244.051 369.92C240.912 372.353 237.494 374.403 233.87 376.026C225.949 379.88 223.193 379.297 220.973 382.811C219.882 384.698 218.892 386.641 218.007 388.633C218.686 388.565 219.813 388.538 222.331 388.239C223.559 388.097 224.734 387.914 227.082 387.561C233.727 386.557 233.7 386.272 235.906 386.204C238.191 386.033 240.488 386.263 242.693 386.882L242.978 386.984C243.675 385.954 244.491 385.008 245.408 384.168C247.445 382.133 248.469 381.135 249.481 380.776C250.322 380.477 250.58 380.606 254.911 380.776C257.721 380.884 259.139 380.939 259.662 380.776C261.861 380.097 262.418 378.611 264.413 378.74C265.085 378.88 265.778 378.88 266.45 378.74C267.434 378.462 267.603 377.94 268.486 377.383C269.789 376.562 271.146 376.617 273.237 376.705C274.683 376.766 275.423 376.807 275.952 377.383C276.381 377.976 276.618 378.687 276.631 379.419C276.7 380.096 276.7 380.778 276.631 381.454C276.515 383.402 276.298 383.883 276.631 384.168C276.963 384.453 277.567 383.951 278.667 384.168C279.487 384.361 280.21 384.842 280.703 385.525C281.181 386.092 281.424 386.82 281.382 387.561C281.301 387.973 281.139 388.365 280.906 388.714C280.673 389.063 280.374 389.363 280.024 389.596C279.195 390.186 278.279 390.643 277.309 390.953C276.352 391.34 275.952 391.442 275.952 391.632C275.952 391.971 277.255 392.229 277.988 392.31C278.666 392.371 279.347 392.371 280.024 392.31C280.927 392.221 281.837 392.221 282.739 392.31C283.38 392.505 283.963 392.854 284.437 393.327C284.911 393.801 285.26 394.383 285.454 395.024C285.592 395.356 285.661 395.711 285.66 396.07C285.659 396.428 285.587 396.783 285.448 397.114Z"
          fill="white"/>
    <path d="M336.354 298.733C337.216 291.059 326.634 272.149 308.98 276.6C298.425 279.355 294.842 289.756 294.278 291.527C288.543 307.478 308.403 316.122 320.749 308.238C331.969 301.623 326.301 285.115 312.604 285.848C305.383 286.384 298.717 297.247 307.853 301.453C313.005 303.618 318.034 297.532 316.874 293.766C320.946 290.882 322.025 296.426 320.865 300.069C316.88 308.211 308.07 307.899 302.423 302.783C292.805 292.606 305.172 278.052 316.718 280.963C325.887 283.365 329.179 287.632 332.288 294.641C334.114 302.193 332.288 304.54 325.501 311.604C319.439 316.909 305.545 321.489 292.921 311.604C287.348 307.03 286.602 294.472 287.491 291.249C292.921 261.395 338.397 264.991 342.469 294.641C342.863 307.146 336.503 317.296 336.354 298.733Z"
          fill="white"/>
    <path d="M353.322 294.662C347.981 241.929 308.919 205.202 267.427 185.994C264.323 184.556 261.214 183.217 258.101 181.977C252.41 179.713 246.609 177.738 240.718 176.061C239.877 175.824 239.048 175.6 238.214 175.383C224.503 171.725 211.335 170.084 199.912 170.504C173.564 170.456 147.543 176.327 123.77 187.684C121.055 188.991 118.365 190.368 115.7 191.816C109.479 195.211 103.481 198.998 97.7401 203.153C93.6404 206.111 89.7014 209.239 85.923 212.537C61.8886 233.523 44.5195 261.151 37.732 292.599C30.2658 328.518 30.9445 366.663 73.7056 400.479C85.7873 409.096 97.4618 412.943 109.734 415.576C114.145 416.532 118.639 417.319 123.254 418.12C137.793 420.644 144.974 420.257 160.674 419.301C159.421 419.265 158.207 418.854 157.192 418.12C156.906 417.903 154.877 416.37 155.155 414.728C155.434 413.086 157.87 412.244 159.228 412.014C159.832 411.912 160.517 411.871 164.658 412.692C168.051 413.371 168.167 413.513 168.73 413.371C170.475 412.923 171.058 411.369 173.481 407.264C174.405 405.704 175.681 403.736 178.233 399.801L178.681 399.122C180.296 396.646 181.755 394.495 182.305 393.694C184.674 390.227 185.237 389.535 186.378 387.588C187.796 385.166 188.523 383.931 189.093 382.16C189.771 380.125 189.622 379.209 189.771 374.018C189.995 366.453 190.362 364.75 189.093 363.841C188.794 363.63 188.414 363.44 184.341 363.841C179.02 364.363 177.425 364.913 176.196 363.841C175.485 363.09 175.013 362.146 174.839 361.127C174.622 360.224 174.377 359.207 174.839 358.413C175.07 358.012 175.681 357.327 179.59 357.056C183.5 356.784 184.789 357.341 185.699 356.377C186.425 355.604 185.882 354.959 186.378 352.985C186.996 350.901 188.169 349.025 189.771 347.557C191.482 345.772 192.704 344.504 194.523 344.164C198.595 343.404 202.539 347.971 203.346 348.914C206.74 352.863 205.803 355.488 208.776 357.056C211.892 358.705 215.672 357.273 216.243 357.056C218.157 356.33 219.399 355.122 220.994 353.663C223.288 351.574 223.587 350.155 225.066 348.914C229.77 344.965 235.064 344.449 237.963 344.164C241.639 343.688 245.376 344.155 248.822 345.521C251.327 346.559 254.646 347.937 255.61 350.949C256.465 353.616 255.006 356.126 252.895 359.77C250.61 363.68 247.618 367.131 244.071 369.947C240.932 372.38 237.515 374.43 233.89 376.054C225.969 379.907 223.213 379.324 220.994 382.839C219.903 384.725 218.913 386.668 218.028 388.66C218.706 388.592 219.833 388.565 222.351 388.266C223.58 388.124 224.754 387.941 227.103 387.588C233.747 386.584 233.72 386.299 235.926 386.231C238.211 386.061 240.508 386.29 242.714 386.909L242.999 387.011C243.696 385.981 244.511 385.036 245.429 384.195C247.465 382.16 248.49 381.163 249.501 380.803C250.343 380.504 250.601 380.633 254.931 380.803C257.741 380.912 259.16 380.966 259.682 380.803C261.882 380.125 262.438 378.639 264.434 378.768C265.105 378.907 265.798 378.907 266.47 378.768C267.454 378.489 267.624 377.967 268.506 377.411C269.809 376.59 271.167 376.644 273.257 376.732C274.703 376.793 275.443 376.834 275.972 377.411C276.402 378.004 276.639 378.714 276.651 379.446C276.72 380.123 276.72 380.805 276.651 381.482C276.536 383.429 276.319 383.91 276.651 384.195C276.984 384.48 277.588 383.978 278.687 384.195C279.508 384.388 280.231 384.87 280.724 385.552C281.202 386.119 281.444 386.848 281.402 387.588C281.321 388 281.16 388.392 280.927 388.741C280.694 389.09 280.394 389.39 280.045 389.623C279.215 390.213 278.299 390.671 277.33 390.98C276.373 391.367 275.972 391.469 275.972 391.659C275.972 391.998 277.276 392.256 278.009 392.337C278.686 392.399 279.367 392.399 280.045 392.337C280.948 392.248 281.857 392.248 282.76 392.337C283.401 392.532 283.984 392.881 284.457 393.354C284.931 393.828 285.28 394.411 285.475 395.051C285.739 395.704 285.739 396.434 285.475 397.087C284.85 398.301 283.242 397.969 282.76 399.122C282.509 399.726 282.916 399.889 282.76 401.158C282.722 401.885 282.488 402.589 282.081 403.193C281.762 403.612 281.352 403.952 280.881 404.187C280.411 404.422 279.892 404.547 279.366 404.55C278.635 404.531 277.926 404.294 277.33 403.872C276.006 403.017 276.156 402.121 275.294 401.836C274.432 401.551 273.97 402.182 271.9 403.193C270.799 403.719 269.666 404.172 268.506 404.55L268.153 404.652C268.257 405.032 268.352 405.446 268.438 405.894C269.517 408.479 269.545 411.104 269.368 413.818C269.368 414.049 269.368 414.273 269.368 414.497C283.059 412.109 295.731 407.122 313.962 396.395C358.04 359.478 357.062 329.502 353.322 294.662ZM235.899 207.095C236.367 206.593 236.775 206.491 237.772 206.05C239.106 205.515 240.365 204.811 241.519 203.954C242.559 203.072 243.483 202.062 244.268 200.948C245.279 199.659 245.422 199.265 246.094 198.913C246.634 198.648 247.238 198.538 247.837 198.595C248.436 198.653 249.008 198.875 249.488 199.238C249.867 199.602 250.161 200.045 250.35 200.535C250.539 201.025 250.617 201.551 250.58 202.074C250.58 204.212 249.087 205.779 247.927 206.994C245.844 208.913 243.474 210.495 240.902 211.682C239.422 212.259 238.607 212.578 237.569 212.313C237.392 212.272 235.499 211.763 235.064 210.026C234.963 209.508 234.985 208.972 235.128 208.464C235.27 207.955 235.53 207.486 235.886 207.095H235.899ZM150.377 203.065C150.693 202.644 151.103 202.302 151.574 202.066C152.045 201.831 152.565 201.708 153.092 201.708C153.771 201.708 154.13 201.946 155.128 202.387C156.422 203.012 157.791 203.468 159.201 203.744C160.553 203.911 161.921 203.911 163.273 203.744C164.909 203.628 165.309 203.465 165.988 203.744C166.546 203.962 167.033 204.332 167.392 204.811C167.752 205.29 167.971 205.861 168.024 206.458C168.012 206.982 167.884 207.497 167.649 207.966C167.414 208.435 167.079 208.847 166.667 209.171C165.085 210.617 162.92 210.569 161.237 210.528C159.858 210.459 158.491 210.231 157.164 209.85C155.758 209.559 154.391 209.104 153.092 208.493C151.673 207.814 150.879 207.401 150.377 206.458C150.295 206.301 149.393 204.558 150.377 203.065ZM68.9272 298.733C83.8597 270.507 117.729 279.538 127.3 300.089C132.343 309.805 134.216 333.716 107.616 340.121C100.618 341.362 99.5116 333.281 107.616 332.657C134.677 327.155 124.462 291.425 99.4709 287.877C84.742 287.293 72.64 298.814 73.6785 314.338C77.4048 339.279 119.27 327.908 106.937 304.839C99.3962 295.7 84.9321 298.196 85.8959 308.91C85.509 313.53 89.9684 317.696 94.7196 315.016C97.7876 313.456 98.2627 310.267 100.15 308.91C105.641 307.397 104.283 314.08 101.507 317.052C90.4503 329.373 74.4251 316.787 80.4659 302.125C92.568 282.042 123.655 298.21 114.403 320.444C98.1201 348.676 54.6735 332.867 68.9272 298.733ZM164.868 360.998C164.99 361.798 165.357 362.504 164.977 363.345C164.941 363.436 164.895 363.522 164.841 363.603C164.595 363.973 164.25 364.266 163.846 364.451C163.442 364.635 162.994 364.704 162.554 364.648C161.732 364.465 161.366 363.637 160.938 362.667C160.508 361.688 160.328 360.618 160.416 359.553C160.524 358.596 160.799 357.666 161.23 356.805C161.607 355.872 162.109 354.996 162.723 354.199C163.175 353.501 163.818 352.947 164.576 352.605C164.975 352.482 165.397 352.454 165.808 352.523C166.22 352.593 166.609 352.758 166.945 353.005C167.185 353.193 167.382 353.431 167.524 353.701C167.665 353.971 167.748 354.268 167.766 354.572C167.766 355.156 167.407 355.359 166.47 356.608C165.943 357.221 165.506 357.906 165.174 358.643C164.866 359.388 164.761 360.2 164.868 360.998ZM283.649 341.118C283.574 342.584 283.311 344.034 282.868 345.433C282.495 346.553 282.088 347.774 281.192 348.48C280.745 348.824 280.216 349.047 279.657 349.128C279.099 349.209 278.528 349.145 278.002 348.941C277.603 348.767 277.245 348.513 276.949 348.195C276.654 347.876 276.427 347.499 276.285 347.089C276.054 346.261 276.407 345.827 277.058 343.662C277.47 342.572 277.733 341.431 277.839 340.27C277.908 339.085 277.694 337.902 277.214 336.816C276.712 335.751 275.945 334.91 276.061 333.56C276.074 333.418 276.097 333.277 276.128 333.139C276.4 331.972 277.486 330.778 278.592 330.683C279.699 330.588 280.534 331.592 281.497 332.766C282.476 333.979 283.162 335.403 283.5 336.925C283.769 338.306 283.812 339.722 283.629 341.118H283.649ZM272.11 280.881C269.304 281.261 266.462 281.3 263.646 280.997C264.891 283.574 265.606 286.375 265.75 289.234H268.465C269.005 289.234 269.523 289.448 269.905 289.83C270.287 290.212 270.502 290.729 270.502 291.269C270.502 291.809 270.287 292.327 269.905 292.708C269.523 293.09 269.005 293.305 268.465 293.305H265.54C265.269 295.194 264.763 297.043 264.033 298.807L266.436 298.481C266.54 298.475 266.644 298.475 266.748 298.481C267.378 298.439 267.999 298.649 268.475 299.064C268.95 299.48 269.241 300.067 269.283 300.697C269.326 301.327 269.116 301.947 268.7 302.423C268.285 302.898 267.697 303.189 267.067 303.231L263.029 303.774C262.925 303.78 262.82 303.78 262.716 303.774C262.293 303.773 261.878 303.658 261.515 303.441C259.876 305.811 257.882 307.914 255.603 309.677L262.913 309.276H263.022C263.562 309.261 264.086 309.461 264.479 309.832C264.871 310.203 265.101 310.714 265.116 311.254C265.131 311.794 264.931 312.318 264.56 312.71C264.189 313.103 263.677 313.332 263.137 313.347L247.526 314.209C245.664 314.918 243.742 315.458 241.784 315.824C241.349 315.905 240.915 315.98 240.481 316.041C240.026 316.407 239.625 316.753 239.266 317.079C238.648 317.642 237.27 319.04 234.514 321.828C231.759 324.617 231.799 324.631 231.121 325.221C228.44 327.582 228.1 327.127 225.691 329.292C223.702 331.076 223.302 331.952 221.618 332.684C220.546 333.142 219.39 333.373 218.225 333.363C216.609 333.553 214.971 333.319 213.473 332.684C211.831 331.958 211.485 331.164 208.722 329.292C207.627 328.555 206.494 327.875 205.328 327.256C203.366 326.194 201.324 325.286 199.22 324.542C197.55 323.912 195.93 323.156 194.373 322.283C188.981 322.991 183.497 322.309 178.443 320.302C178.422 320.489 178.374 320.672 178.301 320.845L175.402 327.901C175.181 328.36 174.814 328.732 174.358 328.958C173.902 329.185 173.383 329.254 172.884 329.153C172.385 329.053 171.933 328.79 171.6 328.404C171.267 328.019 171.072 327.534 171.045 327.026C171.045 326.728 171.103 326.433 171.214 326.157L174.113 319.108C174.222 318.837 174.386 318.593 174.595 318.388C174.371 318.26 174.147 318.124 173.916 317.975C173.666 318.186 173.375 318.343 173.061 318.436L161.026 322.046C160.423 322.225 159.772 322.158 159.217 321.859C158.663 321.56 158.249 321.054 158.067 320.451C158 320.231 157.966 320.003 157.965 319.773C157.967 319.261 158.132 318.763 158.438 318.353C158.743 317.943 159.172 317.641 159.662 317.493L169.524 314.541C168.216 313.288 167.055 311.891 166.063 310.375L162.723 311.536C162.213 311.716 161.652 311.686 161.164 311.452C160.676 311.219 160.3 310.801 160.12 310.291C159.94 309.78 159.97 309.22 160.204 308.732C160.438 308.244 160.855 307.869 161.366 307.689L164.081 306.746C163.575 305.592 163.166 304.398 162.859 303.177L158.332 303.916C157.98 303.974 157.62 303.963 157.272 303.882C156.924 303.801 156.596 303.652 156.306 303.444C156.016 303.236 155.77 302.973 155.582 302.67C155.394 302.366 155.267 302.029 155.21 301.677C155.188 301.536 155.177 301.393 155.176 301.25C155.167 300.599 155.393 299.967 155.812 299.469C156.23 298.971 156.814 298.64 157.456 298.536L162.133 297.769C162.082 295.221 162.44 292.68 163.192 290.245C161.017 290.979 158.775 291.499 156.499 291.798C142.565 293.657 130.205 287.178 128.895 277.34C127.585 267.501 137.813 258.009 151.748 256.15C165.683 254.291 178.043 260.771 179.353 270.609C179.425 271.151 179.463 271.697 179.468 272.244C181.485 271.317 183.588 270.587 185.746 270.066C190.417 268.919 195.281 268.803 200 269.727C200.523 264.693 205.62 260.744 211.831 260.744C218.36 260.744 223.661 265.106 223.709 270.507C226.548 269.049 229.585 268.012 232.723 267.427C236.675 266.675 240.732 266.661 244.689 267.386C244.615 267.071 244.558 266.751 244.519 266.429C243.202 256.591 253.438 247.106 267.373 245.247C281.307 243.388 293.667 249.861 294.977 259.706C296.287 269.551 286.031 279.022 272.097 280.888L272.11 280.881ZM336.367 298.733C337.229 291.059 326.648 272.149 308.993 276.6C298.439 279.355 294.855 289.756 294.292 291.527C288.556 307.478 308.417 316.122 320.763 308.238C331.983 301.623 326.315 285.115 312.618 285.848C305.396 286.384 298.731 297.247 307.867 301.453C313.018 303.618 318.048 297.532 316.887 293.766C320.96 290.882 322.039 296.426 320.878 300.069C316.894 308.211 308.084 307.899 302.437 302.783C292.819 292.606 305.186 278.052 316.731 280.963C325.901 283.365 329.193 287.632 332.302 294.641C334.127 302.193 332.302 304.54 325.514 311.604C319.453 316.909 305.559 321.489 292.934 311.604C287.362 307.03 286.615 294.472 287.504 291.249C292.934 261.395 338.41 264.991 342.483 294.641C342.863 307.146 336.503 317.296 336.354 298.733H336.367Z"
          fill="white"/>
    <path d="M269.348 413.873C269.348 414.103 269.348 414.334 269.3 414.551C269.253 415.23 269.192 415.983 269.137 416.709C268.994 418.31 268.96 419.92 269.036 421.526C269.036 421.974 269.103 422.422 269.158 422.883C269.022 436.324 270.101 429.709 267.121 445.273C265.364 453.463 264.644 455.01 263.192 460.37C262.771 461.937 262.282 463.823 261.691 466.307C259.696 474.666 259.655 476.389 257.619 477.841C255.583 479.293 253.214 479.103 244.044 478.52C225.467 477.163 224.157 477.556 197.21 477.841C165.201 477.719 134.603 478.282 115.082 478.52C107.439 479.008 103.184 479.877 100.828 477.163C97.2514 470.608 100.543 457.568 102.865 450.023C107.48 439.479 114.824 427.436 110.331 416.777C110.147 416.368 109.939 415.972 109.706 415.589C114.118 416.546 118.612 417.333 123.227 418.134C137.766 420.658 144.947 420.271 160.646 419.314C159.393 419.279 158.18 418.868 157.164 418.134C156.879 417.917 154.85 416.383 155.128 414.741C155.406 413.099 157.843 412.258 159.201 412.027C159.805 411.925 160.49 411.885 164.631 412.706C168.024 413.384 168.14 413.527 168.703 413.384C170.447 412.936 171.031 411.383 173.454 407.278C174.377 405.717 175.653 403.75 178.206 399.814L178.654 399.136H259.655C261.762 399.365 263.758 400.197 265.404 401.531C265.912 402.033 266.382 402.573 266.809 403.146C267.197 403.649 267.544 404.182 267.848 404.74C268.059 405.118 268.247 405.507 268.411 405.907C269.497 408.519 269.524 411.159 269.348 413.873Z"
          fill="white"/>
    <path d="M246.08 312.302C244.106 313.355 242.24 314.598 240.508 316.014C240.053 316.38 239.653 316.726 239.293 317.052C238.675 317.615 237.297 319.013 234.542 321.801C231.786 324.59 231.827 324.603 231.148 325.194C228.467 327.555 228.127 327.1 225.718 329.265C223.729 331.049 223.329 331.924 221.645 332.657C220.573 333.115 219.418 333.346 218.252 333.336C216.636 333.525 214.998 333.292 213.5 332.657C211.858 331.931 211.512 331.137 208.749 329.265C207.654 328.527 206.521 327.848 205.355 327.229C203.393 326.167 201.351 325.259 199.247 324.515C197.577 323.885 195.957 323.129 194.4 322.256C192.321 321.094 190.313 319.809 188.387 318.409C188.98 318.115 189.604 317.816 190.26 317.513C194.966 315.337 199.862 313.599 204.887 312.323C205.846 312.078 206.831 311.852 207.84 311.644C210.55 311.054 213.289 310.601 216.046 310.287H216.195L217.227 310.185C220.032 309.902 222.851 309.764 225.67 309.772C226.512 309.772 227.333 309.772 228.141 309.819C232.506 309.952 236.854 310.427 241.146 311.237C242.992 311.563 244.628 311.936 246.08 312.302Z"
          fill="black"/>
    <path d="M235.526 314.012C232.868 311.817 229.798 310.175 226.496 309.181C223.195 308.187 219.728 307.862 216.299 308.224C212.871 308.587 209.549 309.63 206.528 311.293C203.508 312.956 200.85 315.204 198.711 317.907C200.839 319.515 203.177 320.826 205.661 321.801C207.003 322.276 208.306 322.857 209.557 323.538C210.303 323.929 211.026 324.361 211.722 324.834C213.487 326.028 213.711 326.537 214.756 326.999C215.712 327.405 216.758 327.555 217.79 327.433C218.519 327.443 219.241 327.304 219.915 327.026C220.987 326.557 221.272 326.001 222.514 324.861C224.048 323.504 224.265 323.769 225.976 322.263C226.403 321.889 226.424 321.835 228.141 320.098C229.858 318.361 230.775 317.432 231.175 317.072C232.492 315.874 233.953 314.846 235.526 314.012Z"
          fill="white"/>
    <path d="M265.554 293.305C265.283 295.194 264.776 297.043 264.047 298.807C263.372 300.429 262.528 301.976 261.529 303.421C259.89 305.79 257.896 307.894 255.617 309.656C253.168 311.555 250.45 313.08 247.553 314.182C245.691 314.891 243.77 315.431 241.811 315.797C241.377 315.878 240.942 315.953 240.508 316.014C237.759 316.425 234.97 316.482 232.207 316.183C226.757 315.641 221.576 313.553 217.274 310.165C217.044 309.982 216.826 309.799 216.596 309.609C216.127 309.208 215.679 308.795 215.238 308.354C214.506 307.624 213.825 306.844 213.202 306.02C211.145 303.338 209.75 300.209 209.129 296.887C208.185 291.688 209.121 286.323 211.77 281.75C212.028 281.288 212.306 280.847 212.598 280.393C213.26 279.367 213.993 278.387 214.79 277.462C217.29 274.595 220.315 272.232 223.702 270.5C226.541 269.043 229.578 268.005 232.716 267.42C236.668 266.668 240.725 266.654 244.682 267.379C245.949 267.613 247.198 267.933 248.422 268.336C251.111 269.19 253.654 270.448 255.963 272.068C257.578 273.197 259.049 274.521 260.341 276.01C261.656 277.507 262.76 279.178 263.619 280.976C264.864 283.554 265.579 286.355 265.723 289.213C265.794 290.579 265.737 291.949 265.554 293.305Z"
          fill="black"/>
    <path d="M219.08 305.545C218.637 306.427 218.148 307.286 217.614 308.116C217.295 308.625 216.935 309.12 216.589 309.609C216.419 309.839 216.249 310.063 216.073 310.287C212.489 314.785 207.75 318.225 202.362 320.241C199.799 321.235 197.126 321.918 194.4 322.276C189.008 322.984 183.525 322.302 178.47 320.295C177.118 319.759 175.811 319.117 174.561 318.375C174.337 318.246 174.113 318.11 173.882 317.961C172.297 316.981 170.824 315.829 169.49 314.528C168.183 313.275 167.021 311.877 166.029 310.362C165.261 309.216 164.602 308.001 164.06 306.732C163.554 305.578 163.146 304.385 162.839 303.163C162.839 303.075 162.784 302.98 162.764 302.885C162.349 301.215 162.121 299.503 162.085 297.783C162.035 295.234 162.392 292.694 163.144 290.258C165.438 282.666 171.33 276.01 179.434 272.258C181.451 271.33 183.554 270.601 185.712 270.08C190.383 268.933 195.247 268.817 199.966 269.741C205.562 270.797 210.716 273.497 214.77 277.496C215.436 278.154 216.058 278.857 216.629 279.599C217.051 280.112 217.443 280.649 217.804 281.207C219.36 283.516 220.491 286.085 221.143 288.793C222.469 294.444 221.737 300.383 219.08 305.545Z"
          fill="black"/>
    <path d="M179.454 272.237C179.446 274.658 178.817 277.036 177.629 279.144C175.782 282.355 173.162 285.054 170.006 286.995C167.869 288.348 165.576 289.439 163.178 290.245C161.003 290.979 158.762 291.499 156.486 291.798C142.551 293.657 130.191 287.178 128.881 277.34C127.571 267.501 137.8 258.009 151.734 256.15C165.669 254.291 178.029 260.771 179.339 270.609C179.411 271.149 179.449 271.693 179.454 272.237Z"
          fill="black"/>
    <path d="M155.051 282.733C166.827 280.674 175.684 275.07 174.835 270.216C173.986 265.363 163.751 263.097 151.976 265.155C140.2 267.214 131.343 272.818 132.192 277.671C133.041 282.525 143.275 284.791 155.051 282.733Z"
          fill="white"/>
    <path d="M154.67 289.126C163.462 287.972 169.7 280.27 168.604 271.923C167.507 263.576 159.491 257.745 150.7 258.899C141.908 260.053 135.67 267.755 136.766 276.102C137.863 284.449 145.879 290.28 154.67 289.126Z"
          fill="black"/>
    <path d="M156.38 276.38C158.016 275.985 159.011 274.294 158.602 272.604C158.193 270.914 156.536 269.865 154.9 270.26C153.264 270.656 152.269 272.346 152.678 274.036C153.086 275.726 154.744 276.776 156.38 276.38Z"
          fill="white"/>
    <path d="M272.097 280.888C269.29 281.268 266.448 281.306 263.633 281.004C261.342 280.762 259.087 280.257 256.913 279.497C253.265 278.306 250.013 276.138 247.512 273.228C246.108 271.538 245.133 269.534 244.669 267.386C244.594 267.071 244.538 266.751 244.499 266.429C243.182 256.591 253.418 247.106 267.352 245.247C281.287 243.388 293.647 249.861 294.957 259.706C296.267 269.551 286.031 279.022 272.097 280.888Z"
          fill="black"/>
    <path d="M240.467 311.331C253.509 309.206 262.649 298.701 260.882 287.869C259.115 277.036 247.111 269.978 234.069 272.103C221.027 274.229 211.887 284.733 213.654 295.566C215.421 306.398 227.425 313.457 240.467 311.331Z"
          fill="white"/>
    <path d="M270.659 271.821C282.434 269.762 291.292 264.158 290.443 259.304C289.594 254.45 279.359 252.184 267.584 254.243C255.808 256.302 246.95 261.905 247.8 266.759C248.649 271.613 258.883 273.879 270.659 271.821Z"
          fill="white"/>
    <path d="M271.119 278.217C279.922 277.043 286.153 269.316 285.038 260.959C283.922 252.602 275.882 246.779 267.079 247.953C258.277 249.127 252.045 256.854 253.161 265.211C254.276 273.568 262.317 279.391 271.119 278.217Z"
          fill="black"/>
    <path d="M271.98 265.47C273.616 265.075 274.61 263.384 274.202 261.694C273.793 260.004 272.135 258.954 270.499 259.35C268.863 259.745 267.869 261.436 268.277 263.126C268.686 264.816 270.344 265.865 271.98 265.47Z"
          fill="white"/>
    <path d="M168.024 206.458C168.012 206.982 167.884 207.497 167.649 207.966C167.414 208.435 167.079 208.847 166.667 209.171C165.085 210.617 162.92 210.569 161.237 210.528C159.858 210.459 158.491 210.231 157.164 209.85C155.758 209.559 154.391 209.104 153.092 208.493C151.673 207.814 150.879 207.401 150.377 206.458C150.295 206.301 149.393 204.558 150.377 203.065C150.693 202.644 151.103 202.302 151.574 202.066C152.045 201.831 152.565 201.708 153.092 201.708C153.771 201.708 154.13 201.946 155.128 202.387C156.422 203.012 157.791 203.468 159.201 203.744C160.553 203.911 161.921 203.911 163.273 203.744C164.909 203.628 165.309 203.465 165.988 203.744C166.546 203.962 167.033 204.332 167.392 204.811C167.752 205.29 167.971 205.861 168.024 206.458Z"
          fill="black"/>
    <path d="M250.553 202.102C250.553 204.239 249.06 205.806 247.899 207.021C245.823 208.928 243.462 210.501 240.902 211.682C239.422 212.259 238.607 212.578 237.569 212.313C237.392 212.272 235.499 211.763 235.064 210.026C234.966 209.51 234.988 208.977 235.131 208.471C235.273 207.964 235.532 207.498 235.886 207.109C236.354 206.607 236.761 206.505 237.759 206.064C239.093 205.529 240.352 204.824 241.506 203.967C242.545 203.086 243.469 202.076 244.254 200.962C245.266 199.673 245.408 199.279 246.08 198.926C246.621 198.661 247.224 198.551 247.823 198.609C248.423 198.666 248.994 198.889 249.474 199.252C249.852 199.618 250.145 200.064 250.332 200.556C250.518 201.049 250.594 201.577 250.553 202.102Z"
          fill="black"/>
    <path d="M223.682 270.5V270.575C223.682 274.585 220.783 278.038 216.629 279.565C215.322 280.046 213.949 280.325 212.557 280.393C212.299 280.393 212.041 280.393 211.783 280.393C211.28 280.393 210.777 280.366 210.276 280.311C208.576 280.168 206.924 279.67 205.428 278.85C203.931 278.03 202.623 276.905 201.588 275.548C200.538 274.105 199.968 272.367 199.959 270.582C199.958 270.296 199.974 270.011 200.007 269.727C200.53 264.693 205.627 260.744 211.838 260.744C218.333 260.737 223.634 265.1 223.682 270.5Z"
          fill="#FF0000"/>
    <path d="M196.418 316.881C209.967 313.987 218.949 302.278 216.48 290.727C214.012 279.177 201.027 272.159 187.478 275.053C173.928 277.946 164.946 289.656 167.415 301.206C169.883 312.757 182.868 319.775 196.418 316.881Z"
          fill="white"/>
    <path d="M172.097 471.07L145.626 471.748C143.415 471.796 141.256 471.077 139.517 469.713C138.988 469.278 136.564 467.311 136.802 465.642C137.44 461.137 157.232 460.39 161.916 460.214C170.988 459.877 180.072 460.331 189.066 461.571C197.119 463.165 205.293 464.073 213.5 464.285C231.087 464.733 246.08 465.119 254.904 455.464C258.522 451.502 259.805 446.942 262.37 437.824C267.081 421.085 265.235 410.094 266.443 410.005C267.922 409.897 273.027 426.099 269.158 443.93C267.61 451.068 265.703 459.847 258.298 465.642C252.338 470.303 245.273 470.561 231.148 471.07C219.65 471.484 207.677 470.283 201.962 469.713C197.489 469.265 192.914 468.688 186.351 469.034C181.548 469.282 176.777 469.963 172.097 471.07Z"
          fill="black"/>
    <path d="M165.954 300.32C165.963 300.971 165.737 301.603 165.318 302.101C164.9 302.599 164.316 302.93 163.674 303.034L158.318 303.909C157.966 303.968 157.606 303.956 157.258 303.875C156.911 303.794 156.583 303.645 156.293 303.437C156.003 303.229 155.757 302.966 155.568 302.663C155.38 302.36 155.254 302.022 155.196 301.67C155.175 301.529 155.163 301.386 155.162 301.243C155.154 300.592 155.379 299.961 155.798 299.462C156.217 298.964 156.8 298.633 157.443 298.529L162.119 297.762L162.798 297.654C163.15 297.596 163.51 297.607 163.858 297.688C164.205 297.769 164.534 297.918 164.824 298.126C165.114 298.334 165.36 298.597 165.548 298.9C165.736 299.203 165.863 299.541 165.92 299.893C165.942 300.034 165.953 300.177 165.954 300.32Z"
          fill="black"/>
    <path d="M167.909 308.245C167.909 308.666 167.779 309.077 167.536 309.421C167.292 309.765 166.949 310.025 166.551 310.165L162.703 311.502C162.193 311.682 161.632 311.652 161.144 311.418C160.655 311.185 160.28 310.767 160.1 310.257C159.92 309.747 159.95 309.186 160.184 308.698C160.417 308.21 160.835 307.835 161.345 307.655L164.06 306.712L165.201 306.318C165.509 306.209 165.838 306.176 166.161 306.221C166.484 306.266 166.792 306.389 167.058 306.577C167.325 306.766 167.541 307.016 167.691 307.307C167.84 307.597 167.917 307.919 167.916 308.245H167.909Z"
          fill="black"/>
    <path d="M174.73 316.122C174.73 316.468 174.654 316.81 174.509 317.124C174.364 317.438 174.152 317.716 173.889 317.941C173.639 318.152 173.347 318.309 173.034 318.402L160.999 322.012C160.395 322.191 159.745 322.124 159.19 321.825C158.636 321.526 158.222 321.02 158.04 320.417C157.973 320.197 157.939 319.969 157.938 319.739C157.939 319.227 158.105 318.729 158.411 318.319C158.716 317.909 159.145 317.607 159.635 317.459L169.497 314.507L171.669 313.829C172.272 313.649 172.922 313.715 173.476 314.013C174.031 314.31 174.445 314.815 174.629 315.417C174.698 315.645 174.733 315.883 174.73 316.122Z"
          fill="black"/>
    <path d="M178.511 319.949C178.521 320.057 178.521 320.166 178.511 320.275C178.49 320.462 178.442 320.644 178.368 320.817L175.47 327.874C175.273 328.369 174.909 328.78 174.441 329.036C173.973 329.293 173.431 329.378 172.907 329.277C172.383 329.177 171.911 328.897 171.571 328.486C171.231 328.075 171.045 327.559 171.045 327.026C171.045 326.728 171.103 326.433 171.214 326.157L174.113 319.108C174.222 318.837 174.386 318.593 174.595 318.388C174.911 318.059 175.32 317.832 175.767 317.736C176.214 317.641 176.679 317.682 177.103 317.853C177.527 318.025 177.889 318.32 178.144 318.699C178.398 319.079 178.533 319.526 178.531 319.983L178.511 319.949Z"
          fill="black"/>
    <path d="M270.515 291.269C270.515 291.809 270.301 292.327 269.919 292.708C269.537 293.09 269.019 293.305 268.479 293.305H265.085C264.545 293.305 264.027 293.09 263.645 292.708C263.264 292.327 263.049 291.809 263.049 291.269C263.049 290.729 263.264 290.212 263.645 289.83C264.027 289.448 264.545 289.234 265.085 289.234H268.479C269.019 289.234 269.537 289.448 269.919 289.83C270.301 290.212 270.515 290.729 270.515 291.269Z"
          fill="black"/>
    <path d="M267.081 303.19L263.042 303.733C262.938 303.74 262.834 303.74 262.73 303.733C262.159 303.73 261.608 303.523 261.177 303.15C260.745 302.777 260.46 302.262 260.375 301.698C260.292 301.074 260.46 300.443 260.841 299.943C261.223 299.444 261.788 299.115 262.411 299.031L264.047 298.814L266.45 298.488C266.554 298.482 266.658 298.482 266.762 298.488C267.392 298.446 268.013 298.656 268.488 299.071C268.964 299.486 269.255 300.074 269.297 300.704C269.339 301.333 269.129 301.954 268.714 302.429C268.298 302.905 267.711 303.195 267.081 303.238V303.19Z"
          fill="black"/>
    <path d="M265.072 311.176C265.101 311.715 264.916 312.244 264.555 312.646C264.195 313.048 263.69 313.29 263.151 313.32L247.54 314.182L246.861 314.216L246.752 312.18C246.723 311.641 246.908 311.113 247.269 310.711C247.629 310.309 248.134 310.066 248.673 310.036L262.886 309.256H262.995C263.522 309.245 264.034 309.438 264.421 309.797C264.809 310.155 265.042 310.649 265.072 311.176Z"
          fill="black"/>
    <path d="M283.629 341.118C283.553 342.584 283.291 344.034 282.848 345.433C282.475 346.553 282.068 347.774 281.172 348.48C280.724 348.824 280.196 349.047 279.637 349.128C279.078 349.209 278.508 349.145 277.981 348.941C277.583 348.767 277.224 348.513 276.929 348.195C276.633 347.876 276.407 347.499 276.264 347.089C276.033 346.261 276.386 345.827 277.038 343.662C277.45 342.572 277.712 341.431 277.819 340.27C277.888 339.085 277.674 337.902 277.194 336.816C276.692 335.751 275.925 334.91 276.04 333.56C276.053 333.418 276.076 333.277 276.108 333.139C276.38 331.972 277.466 330.778 278.572 330.683C279.678 330.588 280.513 331.592 281.477 332.766C282.456 333.979 283.141 335.403 283.479 336.925C283.755 338.305 283.806 339.721 283.629 341.118Z"
          fill="black"/>
    <path d="M167.766 354.572C167.766 355.156 167.407 355.359 166.47 356.608C165.943 357.221 165.506 357.906 165.174 358.643C164.866 359.388 164.761 360.2 164.868 360.998C164.99 361.798 165.357 362.504 164.977 363.345C164.941 363.436 164.895 363.522 164.841 363.603C164.595 363.973 164.25 364.266 163.846 364.451C163.442 364.635 162.994 364.704 162.554 364.648C161.732 364.465 161.366 363.637 160.938 362.667C160.508 361.688 160.328 360.618 160.416 359.553C160.524 358.596 160.799 357.666 161.23 356.805C161.607 355.872 162.109 354.996 162.723 354.199C163.175 353.501 163.818 352.947 164.576 352.605C164.975 352.482 165.397 352.454 165.808 352.523C166.22 352.593 166.609 352.758 166.945 353.005C167.185 353.193 167.382 353.431 167.524 353.701C167.665 353.971 167.748 354.268 167.766 354.572Z"
          fill="black"/>
    <path d="M269.361 414.551C269.361 415.555 269.361 416.498 269.287 417.421C269.246 418.1 269.205 418.778 269.158 419.511C269.11 420.244 269.069 420.929 269.036 421.546C268.608 428.725 268.947 427.212 268.479 433.081C267.597 444.147 266.443 448.428 264.196 452.615C263.959 453.049 263.728 453.436 263.728 453.436C261.495 457.052 258.63 459.162 256.262 460.899C252.982 463.321 249.308 465.158 245.402 466.327C240.956 467.609 239.49 466.944 225.718 466.327C215.761 465.879 215.537 466.185 206.713 465.649C201.398 465.323 200.448 465.153 195.853 464.97C190.88 464.678 185.894 464.678 180.921 464.97C176.013 465.309 176.719 465.648 169.382 466.327C167.95 466.463 163.904 466.639 155.807 467.005C153.01 467.096 150.212 466.933 147.445 466.517C147.071 466.463 146.691 466.395 146.304 466.327C144.635 466.028 142.951 465.608 141.553 464.292C141.119 463.88 140.728 463.425 140.386 462.935C140.04 462.453 139.755 461.985 139.517 461.578C139.347 461.293 139.456 461.455 138.159 458.864C137.481 457.507 137.311 457.174 137.481 456.828C137.576 456.673 137.703 456.541 137.854 456.44C138.006 456.34 138.177 456.273 138.356 456.245C138.736 456.156 139.128 456.124 139.517 456.15H154.449C156.949 456.063 159.442 455.837 161.916 455.471C164.183 455.091 172.674 453.653 178.884 447.329C182.278 443.882 182.645 441.358 184.993 441.223C187.708 441.067 188.55 444.337 192.459 446.651C194.57 447.906 195.968 447.919 201.086 447.947H203.665L206.713 447.994C216.365 448.177 218.347 447.763 221.218 447.831C222.684 447.872 222.894 447.967 223.682 447.994C224.096 448.006 224.512 447.988 224.924 447.94C226.755 447.688 228.549 447.214 230.265 446.529C231.956 445.884 233.184 445.28 233.184 445.28C236.754 443.374 240.44 441.698 244.044 439.852C251.605 435.978 252.657 435.666 254.904 433.746C256.98 431.964 258.807 429.91 260.334 427.639C261.739 425.525 262.879 423.247 263.728 420.854C264.402 418.991 264.951 417.085 265.37 415.148C265.621 414.015 265.812 412.93 265.968 411.898V411.837C265.971 411.815 265.971 411.792 265.968 411.769C266.049 411.254 266.117 410.765 266.171 410.284C266.409 408.302 266.511 406.613 266.599 405.31V404.991C266.622 404.375 266.681 403.762 266.775 403.153C266.843 402.759 266.938 402.542 267.088 402.535C267.393 402.535 267.766 403.376 268.092 404.672C268.196 405.052 268.291 405.466 268.377 405.914C268.706 407.483 268.953 409.069 269.117 410.663C269.232 411.81 269.293 412.855 269.307 413.839C269.355 414.09 269.361 414.314 269.361 414.551Z"
          fill="white"/>
    <path d="M252.868 359.797C250.583 363.707 247.591 367.158 244.044 369.974C240.905 372.407 237.487 374.457 233.863 376.081C225.942 379.935 223.186 379.351 220.967 382.866C219.875 384.752 218.885 386.695 218.001 388.687L217.573 389.651C216.548 391.971 216.48 392.446 215.537 394.4C214.715 396.029 213.809 397.614 212.822 399.149C212.618 399.523 212.387 399.964 212.143 400.506C211.038 402.917 210.13 405.413 209.428 407.97C208.749 410.243 208.79 410.507 208.07 412.719C207.392 414.755 206.774 416.376 206.38 417.347C206.224 417.713 206.109 417.984 206.034 418.147C205.179 420.122 205.023 420.183 203.319 423.575C200.747 428.745 201.039 428.8 199.925 430.36C198.7 432.052 197.338 433.64 195.853 435.109C194.591 436.371 193.226 437.098 193.138 438.502C193.138 439.236 193.376 439.95 193.817 440.537C194.149 441.067 195.174 442.478 197.889 443.251C199.925 443.835 200.984 443.285 204.364 443.251H219.609C221.506 443.103 223.41 443.076 225.311 443.17L226.397 443.251C229.39 443.536 230.177 443.977 230.469 444.608C230.577 444.925 230.615 445.262 230.58 445.594C230.544 445.927 230.437 446.248 230.265 446.535C230.153 446.773 230.019 447 229.865 447.214L229.79 447.316C228.84 448.544 227.245 449.093 223.003 449.351C220.516 449.481 218.024 449.481 215.537 449.351C215.537 449.351 211.505 449.229 206.713 449.351C200.455 449.514 198.928 450.03 195.174 449.351C191.421 448.673 190.199 447.723 189.744 447.316C187.504 445.28 187.789 442.858 186.351 442.566C184.993 442.295 184.117 444.249 180.921 447.316C179.049 449.1 177.002 450.691 174.812 452.065C172.073 453.665 169.093 454.81 165.988 455.457C162.594 456.312 159.879 456.475 154.449 456.814C153.56 456.869 150.234 456.882 143.589 456.814H143.481C141.752 456.9 140.021 456.703 138.356 456.231C137.808 456.038 137.286 455.778 136.802 455.457C136.734 455.417 135.852 454.779 134.087 453.422L131.372 451.387C130.754 450.932 130.286 450.62 129.757 450.267C129.227 449.914 128.433 449.419 127.299 448.673C124.734 446.983 123.444 446.135 123.227 445.959C121.924 444.9 119.589 443.007 118.476 439.852C118.048 438.631 117.118 436.1 118.476 434.424C119.172 433.639 120.145 433.153 121.191 433.067C122.674 432.966 124.137 433.454 125.263 434.424C126.621 435.449 126.98 436.46 127.978 437.817L128.168 438.068C129.965 440.189 131.946 442.149 134.087 443.923C138.838 447.994 138.092 448.069 139.517 448.673C140.732 449.188 141.689 449.297 146.304 449.351C150.608 449.405 152.753 449.432 154.449 449.351C161.868 449.005 165.581 448.835 168.703 447.316C171.166 446.04 173.448 444.442 175.491 442.566C176.482 441.637 178.07 440.008 178.884 439.174C180.887 437.138 181.219 436.684 182.278 435.781C184.423 433.943 185.57 432.965 187.029 433.067C188.645 433.176 188.977 434.506 190.423 434.424C191.618 434.356 192.541 433.42 193.817 431.71C195.413 429.601 196.779 427.326 197.889 424.925C199.097 422.089 200 419.972 200.937 417.462C201.473 416.057 202.016 414.531 202.64 412.712C204.086 408.418 204.1 407.888 205.355 404.571C206.34 401.952 206.713 401.232 207.548 399.143C207.704 398.749 207.88 398.301 208.07 397.786C209.462 394.067 210.385 391.001 210.785 389.644C212.19 384.84 212.143 383.788 213.5 380.145C215.197 375.538 216.249 374.54 216.894 374.038C218.408 372.865 219.501 372.973 223.003 372.003C225.568 371.325 228.067 370.417 230.469 369.289C234.161 367.457 233.591 366.575 239.293 362.504C243.331 359.627 245.035 359.064 245.402 357.076C245.553 356.173 245.441 355.245 245.08 354.403C244.719 353.561 244.124 352.84 243.365 352.327C241.071 350.97 237.874 352.829 235.22 354.362C232.078 356.18 231.514 357.381 228.433 359.79C226.071 361.629 223.044 364.003 218.93 365.218C217.525 365.632 211.091 367.538 205.355 364.539C200.014 361.744 198.744 356.513 197.21 357.076C195.853 357.571 196.247 362.443 197.21 365.896C198.025 368.828 198.738 368.834 199.247 371.324C199.844 374.228 199.349 376.508 198.568 380.145C197.937 382.943 197.027 385.67 195.853 388.287C194.271 392.012 193.593 392.208 190.423 397.786C190.152 398.267 189.9 398.722 189.67 399.143C187.138 403.831 187.077 405.344 183.636 411.355C181.966 414.273 180.859 415.901 180.242 416.783C179.821 417.387 179.468 417.869 179.149 418.283C177.751 420.108 177.113 420.556 174.812 423.568C171.778 427.578 171.418 428.82 169.382 429.675C168.981 429.844 166.273 430.944 164.631 429.675C163.803 429.03 163.606 428.067 163.273 426.282C162.54 422.361 163.551 421.343 162.594 420.176C162.349 419.905 162.049 419.689 161.715 419.542C161.38 419.395 161.019 419.32 160.653 419.321C159.4 419.286 158.187 418.874 157.171 418.14C156.886 417.923 154.857 416.39 155.135 414.748C155.413 413.106 157.85 412.265 159.207 412.034C159.811 411.932 160.497 411.891 164.637 412.712C168.031 413.391 168.147 413.533 168.71 413.391C170.454 412.943 171.038 411.389 173.461 407.285C174.384 405.724 175.66 403.756 178.212 399.821L178.66 399.143C180.276 396.666 181.735 394.515 182.285 393.715C184.654 390.248 185.217 389.556 186.357 387.608C187.776 385.186 188.502 383.951 189.072 382.18C189.751 380.145 189.602 379.229 189.751 374.038C189.975 366.473 190.342 364.77 189.072 363.861C188.774 363.651 188.394 363.461 184.321 363.861C179 364.383 177.405 364.933 176.176 363.861C175.465 363.111 174.993 362.166 174.819 361.147C174.601 360.245 174.357 359.227 174.819 358.433C175.049 358.033 175.66 357.347 179.57 357.076C183.479 356.805 184.769 357.361 185.679 356.398C186.405 355.624 185.862 354.98 186.357 353.005C186.975 350.922 188.148 349.045 189.751 347.577C191.462 345.793 192.683 344.524 194.502 344.185C198.575 343.425 202.518 347.991 203.326 348.934C206.72 352.883 205.783 355.509 208.756 357.076C211.871 358.725 215.652 357.293 216.222 357.076C218.136 356.35 219.378 355.142 220.973 353.684C223.268 351.594 223.566 350.176 225.046 348.934C229.75 344.985 235.044 344.47 237.942 344.185C241.619 343.708 245.356 344.175 248.802 345.542C251.307 346.58 254.626 347.957 255.59 350.97C256.438 353.643 254.979 356.153 252.868 359.797Z"
          fill="black"/>
    <path d="M267.834 412.204C267.685 412.957 267.488 413.839 267.25 414.918C267.21 415.094 267.162 415.277 267.121 415.467C266.253 419.192 265.764 421.261 265.282 422.931C265.214 423.154 265.153 423.372 265.085 423.609C263.728 428.107 263.008 430.353 261.691 432.429C259.951 435.159 257.635 437.475 254.904 439.214C253.092 440.361 250.73 441.128 246.08 442.607C242.972 443.597 242.408 443.672 236.578 445.321C233.374 446.23 231.297 446.847 229.865 447.255C227.333 447.987 226.824 448.082 225.718 448.035C225.44 448.035 225.175 448.035 224.924 447.981C221.496 447.648 220.953 446.169 216.215 445.999C213.709 445.953 211.206 446.181 208.749 446.678C207.027 447.001 205.329 447.438 203.665 447.987C202.897 448.258 202.062 448.275 201.283 448.035L201.086 447.974C199.763 447.526 198.188 446.305 195.174 443.964C194.738 443.626 194.332 443.252 193.959 442.844C193.341 442.172 192.834 441.405 192.459 440.571C192.207 440.083 192.064 439.546 192.038 438.997C191.998 437.64 192.785 436.684 193.817 435.143C194.55 434.044 195.12 432.843 195.853 431.751C197.367 429.492 198.921 426.371 201.962 420.217C202.43 419.273 202.878 418.351 203.319 417.462C205.885 412.197 207.853 407.963 208.749 405.968C209.794 403.689 211.009 401.477 212.007 399.183C212.299 398.505 212.577 397.826 212.822 397.148C214.444 392.622 214.661 390.119 216.894 389.006C217.237 388.83 217.615 388.733 218.001 388.721C218.679 388.653 219.806 388.626 222.324 388.327C223.553 388.185 224.727 388.002 227.075 387.649C233.72 386.645 233.693 386.36 235.899 386.292C238.184 386.122 240.481 386.351 242.687 386.97L242.972 387.072C244.515 387.845 246.007 388.718 247.438 389.684C250.832 391.795 251.259 392.398 251.51 393.077C252.128 394.712 251.056 395.465 251.51 397.148C251.74 397.938 252.192 398.644 252.813 399.183C253.853 400.032 255.016 400.719 256.262 401.219C260.415 403.119 262.268 401.789 265.085 403.933C265.539 404.277 265.966 404.656 266.361 405.066C266.436 405.161 266.524 405.256 266.612 405.351C267.106 405.945 267.507 406.611 267.8 407.325C268.309 408.56 268.33 409.693 267.834 412.204Z"
          fill="#FF9600"/>
    <path d="M224.967 442.625L212.163 428.485C211.409 427.651 210.121 427.587 209.287 428.342L208.467 429.084C207.633 429.838 207.569 431.125 208.324 431.959L221.127 446.099C221.882 446.932 223.17 446.996 224.004 446.242L224.824 445.5C225.658 444.745 225.722 443.458 224.967 442.625Z"
          fill="#FEEE0D"/>
    <path d="M209.408 442.443L202.575 435.842C201.901 435.191 200.827 435.21 200.175 435.883L199.685 436.391C199.033 437.064 199.052 438.138 199.726 438.789L206.559 445.39C207.233 446.041 208.307 446.023 208.958 445.349L209.449 444.842C210.1 444.168 210.082 443.094 209.408 442.443Z"
          fill="#FEEE0D"/>
    <path d="M251.198 410.195C251.022 409.822 250.961 409.632 250.832 409.327C250.666 408.847 250.438 408.39 250.153 407.97C249.861 407.583 249.793 407.671 249.474 407.291C249.345 407.135 248.456 406.084 248.795 405.256C248.89 405.025 249.087 404.876 249.474 404.577C249.835 404.202 250.315 403.963 250.832 403.899C251.349 403.96 251.83 404.2 252.189 404.577C252.439 404.779 252.666 405.006 252.868 405.256C253.411 405.869 253.868 406.554 254.225 407.291C254.569 407.925 254.798 408.614 254.904 409.327C254.945 409.778 254.945 410.232 254.904 410.684C254.904 412.862 256.058 413.506 255.583 414.755C255.379 415.291 254.904 416.057 254.225 416.112C253.37 416.173 252.522 415.013 252.189 414.076C251.795 412.964 251.911 411.559 251.476 410.738C251.449 410.691 251.334 410.48 251.198 410.195Z"
          fill="black"/>
    <path d="M235.899 395.078C235.105 394.4 235.22 394.271 234.542 393.721C233.415 392.806 232.967 393.043 232.505 392.364C232.229 391.966 232.081 391.492 232.081 391.007C232.081 390.522 232.229 390.049 232.505 389.651C232.671 389.448 232.877 389.283 233.111 389.166C233.345 389.049 233.601 388.983 233.863 388.972C234.263 388.972 234.426 389.196 235.22 389.651C235.899 390.03 235.899 389.949 236.578 390.329C237.298 390.716 237.98 391.17 238.614 391.686C239.14 392.058 239.599 392.517 239.972 393.043C240.263 393.484 240.189 393.552 240.65 394.4C241.166 395.357 241.329 395.431 241.329 395.757C241.265 396.093 241.102 396.403 240.86 396.645C240.618 396.887 240.308 397.05 239.972 397.114C239.435 397.222 238.94 396.965 237.935 396.435C237.204 396.067 236.521 395.611 235.899 395.078Z"
          fill="black"/>
    <path d="M232.573 398.906C232.854 398.012 232.026 396.957 230.724 396.548C229.423 396.139 228.14 396.532 227.859 397.426C227.578 398.32 228.406 399.375 229.707 399.784C231.009 400.193 232.292 399.8 232.573 398.906Z"
          fill="black"/>
    <path d="M247.666 413.847C248.499 413.092 248.591 411.837 247.871 411.042C247.151 410.248 245.892 410.216 245.059 410.971C244.225 411.726 244.133 412.982 244.853 413.776C245.573 414.57 246.832 414.602 247.666 413.847Z"
          fill="black"/>
    <path d="M226.397 424.932C231.27 424.932 235.22 420.983 235.22 416.112C235.22 411.24 231.27 407.291 226.397 407.291C221.523 407.291 217.573 411.24 217.573 416.112C217.573 420.983 221.523 424.932 226.397 424.932Z"
          fill="#0053E1"/>
    <path d="M226.387 418.523C229.011 418.322 231.022 416.639 230.878 414.763C230.734 412.888 228.491 411.53 225.867 411.731C223.243 411.932 221.233 413.615 221.376 415.491C221.52 417.366 223.764 418.724 226.387 418.523Z"
          fill="#04B0D2"/>
    <path d="M127.978 465.642C124.883 461.896 127.428 455.729 128.657 452.75C129.6 450.464 131.44 445.999 134.087 445.965C135.662 445.965 136.802 447.499 138.159 449.358C145.442 459.433 149.06 464.509 147.662 466.32C147.275 466.822 145.823 467.107 142.911 467.677C141.118 468.024 139.304 468.251 137.481 468.356C135.044 468.518 133.829 468.607 132.729 468.356C130.905 467.959 129.246 467.012 127.978 465.642Z"
          fill="#FF9600"/>
    <path d="M285.448 397.114C284.823 398.328 283.215 397.996 282.733 399.149C282.482 399.753 282.889 399.916 282.733 401.185C282.695 401.912 282.461 402.616 282.054 403.22C281.735 403.639 281.325 403.979 280.854 404.214C280.384 404.45 279.865 404.574 279.339 404.577C278.608 404.558 277.899 404.322 277.303 403.899C275.979 403.044 276.128 402.148 275.266 401.863C274.404 401.578 273.943 402.209 271.873 403.22C270.772 403.746 269.638 404.199 268.479 404.577L268.126 404.679L267.848 404.754C267.447 404.856 267.042 404.938 266.633 404.998L266.361 405.032C265.588 405.14 264.78 405.181 263.728 405.256C256.906 405.751 255.243 406.538 253.547 405.256C253.192 405.028 252.889 404.73 252.655 404.38C252.421 404.03 252.263 403.635 252.189 403.22C252.135 402.311 252.82 402.087 252.868 401.185C252.915 400.282 252.311 399.936 251.66 399.149C251.319 398.74 251.04 398.282 250.832 397.792C250.499 396.686 250.271 395.55 250.153 394.4C249.841 392.405 249.875 391.883 249.474 391.686C248.714 391.306 247.933 392.846 246.08 393.043C245.446 393.123 244.801 393.041 244.208 392.804C243.614 392.566 243.091 392.182 242.687 391.686C241.668 390.254 242.408 388.327 242.687 387.615C242.764 387.415 242.86 387.222 242.972 387.038C243.668 386.008 244.484 385.063 245.402 384.223C247.438 382.187 248.463 381.19 249.474 380.83C250.316 380.532 250.574 380.66 254.904 380.83C257.714 380.939 259.133 380.993 259.655 380.83C261.854 380.152 262.411 378.666 264.406 378.795C265.078 378.934 265.771 378.934 266.443 378.795C267.427 378.516 267.597 377.994 268.479 377.438C269.782 376.617 271.14 376.671 273.23 376.759C274.676 376.82 275.416 376.861 275.945 377.438C276.375 378.031 276.611 378.741 276.624 379.473C276.693 380.15 276.693 380.832 276.624 381.509C276.509 383.456 276.291 383.938 276.624 384.223C276.957 384.508 277.561 384.005 278.66 384.223C279.48 384.415 280.203 384.897 280.696 385.58C281.174 386.147 281.417 386.875 281.375 387.615C281.294 388.027 281.132 388.419 280.899 388.768C280.667 389.117 280.367 389.417 280.018 389.651C279.188 390.24 278.272 390.698 277.303 391.007C276.346 391.394 275.945 391.496 275.945 391.686C275.945 392.025 277.248 392.283 277.981 392.364C278.659 392.426 279.34 392.426 280.018 392.364C280.92 392.275 281.83 392.275 282.733 392.364C283.374 392.559 283.957 392.908 284.43 393.382C284.904 393.855 285.253 394.438 285.448 395.078C285.712 395.731 285.712 396.461 285.448 397.114Z"
          fill="#02BB2D"/>
    <path d="M107.616 340.121C100.618 341.362 99.5116 333.281 107.616 332.657C134.677 327.155 124.462 291.425 99.4709 287.877C84.742 287.293 72.64 298.814 73.6785 314.338C77.4048 339.279 119.27 327.908 106.937 304.839C99.3962 295.7 84.9321 298.196 85.8959 308.91C85.509 313.53 89.9684 317.696 94.7196 315.016C97.7876 313.456 98.2627 310.267 100.15 308.91C105.641 307.397 104.283 314.08 101.507 317.052C90.4503 329.373 74.4251 316.787 80.4659 302.125C92.568 282.042 123.655 298.21 114.403 320.444C98.1134 348.676 54.6735 332.867 68.9272 298.733C83.8597 270.507 117.729 279.538 127.3 300.089C132.356 309.805 134.216 333.716 107.616 340.121Z"
          fill="#D67498"/>
    <path d="M336.354 298.733C337.216 291.059 326.634 272.149 308.98 276.6C298.425 279.355 294.842 289.756 294.278 291.527C288.543 307.478 308.403 316.122 320.749 308.238C331.969 301.623 326.301 285.115 312.604 285.848C305.383 286.384 298.717 297.247 307.853 301.453C313.005 303.618 318.034 297.532 316.874 293.766C320.946 290.882 322.025 296.426 320.865 300.069C316.88 308.211 308.07 307.899 302.423 302.783C292.805 292.606 305.172 278.052 316.718 280.963C325.887 283.365 329.179 287.632 332.288 294.641C334.114 302.193 332.288 304.54 325.501 311.604C319.439 316.909 305.545 321.489 292.921 311.604C287.348 307.03 286.602 294.472 287.491 291.249C292.921 261.395 338.397 264.991 342.469 294.641C342.863 307.146 336.503 317.296 336.354 298.733Z"
          fill="#D67498"/>
</svg>
